<svg viewBox="0 0 512 512">
  <g>
    <path
      xmlns="http://www.w3.org/2000/svg"
      d="m511.9 341.7c-1.1-47.5-15.6-110.9-38.8-169.6-10.6-26.9-22.1-50-33.2-66.7-14.8-22.4-28.1-32.8-42.1-32.8-7.9 0-15-.3-21.8-.6-17.2-.7-32.1-1.3-45 4-13.3 5.5-21 15.8-25.7 26.1h-98.6c-4.7-10.3-12.4-20.6-25.7-26.1-13-5.3-27.8-4.7-45-4-6.9.3-14 .6-21.8.6-14 0-27.3 10.4-42.1 32.8-11.1 16.8-22.5 39.9-33.2 66.8-23.2 58.6-37.7 122-38.8 169.6-1.9 83.4 37.4 97.6 61 98.7h2.1c23.6 0 49.5-18.1 79-55.1 13.9-17.4 25.1-34.8 31.2-44.6h165.2c6 9.8 17.3 27.1 31.2 44.6 30.5 38.1 57 56.2 81.1 55.1 23.6-1.1 62.9-15.4 61-98.8zm-219.5-207.6c-9.9 15.9-24.3 21.9-36.4 21.9s-26.5-6.1-36.4-21.9zm186.1 236.6c-5.4 36.7-22.6 37.5-29 37.8-4.5.2-22-2.3-54.4-42.8-19.1-23.9-33.3-48.6-33.5-48.8-2.9-5-8.1-8.1-13.9-8.1h-183.4c-5.7 0-11 3.1-13.9 8-.1.2-14.3 24.9-33.5 48.8-32.4 40.5-49.9 43-54.4 42.8-6.5-.3-23.6-1.1-29-37.8-5.5-37.6 4.6-100.2 26.4-163.3 9.7-27.9 21-53.8 31.9-73 13.6-23.9 21.5-29 23.1-29.8 8.2 0 15.7-.3 22.3-.6 31.7-1.3 37.4-1.5 43.9 21.2 10.9 38.3 40.3 62.9 74.9 62.9 34.6 0 64-24.7 74.9-62.9 6.5-22.7 12.2-22.5 43.9-21.2 6.6.3 14.1.6 22.3.6 1.6.8 9.6 5.9 23.1 29.8 10.9 19.2 22.2 45.1 31.9 73 21.8 63.1 31.9 125.7 26.4 163.4zm-288.7-140.6c0 8.8-7.2 16-16 16h-20.2v20.2c0 8.8-7.2 16-16 16s-16-7.2-16-16v-20.2h-20.2c-8.8 0-16-7.2-16-16s7.2-16 16-16h20.2v-20.2c0-8.8 7.2-16 16-16s16 7.2 16 16v20.2h20.2c8.9 0 16 7.1 16 16zm200.6-36.3v4c0 8.8-7.2 16-16 16s-16-7.2-16-16v-4c0-8.8 7.2-16 16-16s16 7.2 16 16zm0 68.6v3.9c0 8.8-7.2 16-16 16s-16-7.2-16-16v-3.9c0-8.8 7.2-16 16-16s16 7.1 16 16zm36.2-32.3c0 8.8-7.2 16-16 16h-4c-8.8 0-16-7.2-16-16s7.2-16 16-16h4c8.9 0 16 7.1 16 16zm-68.5 0c0 8.8-7.2 16-16 16h-3.9c-8.8 0-16-7.2-16-16s7.2-16 16-16h3.9c8.8 0 16 7.1 16 16z"
    />
  </g>
</svg>
