 <svg xmlns="http://www.w3.org/2000/svg" viewBox="0 0 60 61">
        <g>
          <g xmlns="http://www.w3.org/2000/svg" fill-rule="evenodd">
            <g fill-rule="nonzero">
              <path d="m52.156 44.06c-.3893718.214934-.8739023.1468797-1.189-.167l-2.6-2.6c2.641-3.08 3.633-6.702 3.633-12.293.0580937-3.3869482-.6692547-6.7413077-2.125-9.8l1.092-1.091c.3149305-.3133977.798872-.3814265 1.188-.167 2.1675494 1.1804378 4.8368402.9131002 6.727237-.6737532 1.8903968-1.5868535 2.616193-4.1694496 1.8291761-6.5087461-.7870168-2.33929658-2.926268-3.95799586-5.3914131-4.0795007-.1298473-2.45701168-1.7480134-4.58512766-4.0809222-5.36698659-2.3329087-.78185893-4.9066798-.05864297-6.4909033 1.82390924-1.5842234 1.88255221-1.8570982 4.54204059-.6881745 6.70707735.214934.3893718.1468797.8739023-.167 1.189l-.873.873c-3.6810561-2.00973108-7.8273968-3.01216587-12.02-2.906-4.1926032-.10616587-8.3389439.89626892-12.02 2.906l-.873-.873c-.3137306-.3146902-.3821704-.7986572-.168-1.188 1.1836772-2.16757514.9182487-4.83902641-.6688056-6.73130875-1.5870543-1.89228235-4.1714872-2.61878826-6.5120468-1.83059137-2.34055967.7881969-3.95905214 2.93006205-4.0781476 5.39690012-2.45701168.12984731-4.58512766 1.74801339-5.36698659 4.0809222-.78185893 2.3329087-.05864297 4.9066798 1.82390924 6.4909033 1.88255221 1.5842234 4.54204059 1.8570982 6.70707735.6881745.3893718-.214934.8739023-.1468797 1.189.167l1.092 1.093c-1.4557453 3.0586923-2.18309366 6.4130518-2.125 9.8 0 5.592.992 9.213 3.637 12.29l-2.6 2.6c-.3149305.3133977-.798872.3814265-1.188.167-2.16710963-1.1789054-4.83495906-.9111603-6.72457912.6748782-1.88962007 1.5860385-2.61582906 4.167071-1.8304818 6.5057484.78534726 2.3386773 2.92216494 3.9582817 5.38606092 4.0823734.15609765 3.189109 2.79309304 5.6913031 5.986 5.68 1.1504336.0041299 2.2769768-.3281673 3.241-.956 2.6405479-1.6913595 3.527568-5.1342887 2.033-7.891-.2144329-.3884549-.1472511-.8717572.165-1.187l.577-.573c.7758442 1.4370911 2.2077193 2.401766 3.831 2.581 1.4056865.1335872 2.8027925-.3298165 3.85-1.277.2342013-.2113605.447518-.4447698.637-.697.9442719 1.2590292 2.4262135 2 4 2s3.0557281-.7409708 4-2c.189931.2530841.4035647.4874785.638.7 1.0473348.9469652 2.4443419 1.4103361 3.85 1.277 1.62211-.1786944 3.0533796-1.1417184 3.83-2.577l.575.571c.3137306.3146902.3821704.7986572.168 1.188-1.4951282 2.7559604-.6094695 6.1986859 2.03 7.891.9649658.6259045 2.0918357.95611 3.242.95 3.1934964.0123511 5.8313859-2.4902734 5.987-5.68 2.4570117-.1298473 4.5851277-1.7480134 5.3669866-4.0809222.7818589-2.3329087.058643-4.9066798-1.8239093-6.4909033-1.8825522-1.5842234-4.5420405-1.8570982-6.7070773-.6881745zm-6.849-31.612c.940574-.9371942 1.1495872-2.3827664.513-3.548-.8075308-1.45980996-.6242528-3.26750536.4598464-4.53552743 1.0840992-1.26802206 2.8413347-1.73005783 4.4089228-1.15925278 1.5675882.57080506 2.6163006 2.05456914 2.6312308 3.72278021-1.3420335.3890649-2.5102402 1.22622094-3.31 2.372-.2122786.29204284-.2506529.67583509-.1003998 1.0041265.1502531.3282914.4658001.5501001.8255747.5803245.3597745.0302243.7079056-.1358294.9108251-.434451.6458123-.93546038 1.6498982-1.56201862 2.774-1.731 1.7184823-.25334983 3.4036061.6333611 4.1679926 2.1931947s.4326509 3.4348936-.8205162 4.6377816c-1.2531672 1.2028881-3.1402328 1.4576073-4.6674764.6300237-1.1657165-.6395005-2.6139421-.4302806-3.551.513l-.7.7c-1.1020022-1.69114-2.498053-3.1711842-4.122-4.37zm-32.86 4.245c-.9371854-.9397791-2.3819492-1.1487342-3.547-.513-1.53007469.8394673-3.42778683.5900245-4.68894995-.6163343s-1.59461587-3.0911247-.8239096-4.6569618c.77070628-1.56583706 2.46764067-2.45124474 4.19285955-2.1877039 1.12455551.17052468 2.12854332.79846947 2.774 1.735.3186683.4517689.9432311.5596683 1.395.241s.5596683-.94323107.241-1.395c-.7982014-1.14900104-1.9666563-1.98915896-3.31-2.38.02982007-1.65543661 1.0786785-3.12054777 2.6361569-3.68234905 1.5574784-.56180129 3.3000956-.10360914 4.3798211 1.15160096s1.2723053 3.04673675.484022 4.50274809c-.6378559 1.1661829-.4283526 2.6135491.514 3.551l.575.575c-1.6241771 1.1985562-3.0202704 2.6786455-4.122 4.37zm4.246 32.859c-.940574.9371942-1.1495872 2.3827664-.513 3.548.8385638 1.5168325.604857 3.4011473-.5788564 4.6671619-1.1837134 1.2660145-3.0480937 1.6256627-4.6177874.890794-1.56969366-.7348687-2.48753597-2.3970439-2.2733562-4.1169559.13471871-1.1609024.75962422-2.2087201 1.717-2.879.4410905-.3233462.540596-.9410621.2233565-1.3865648s-.93352609-.5535078-1.3833565-.2424352c-1.1262898.8018421-1.95068788 1.9586758-2.341 3.285-1.65715348-.0272941-3.12507611-1.0756995-3.68850582-2.6343687-.56342971-1.5586691-.1051582-3.3033576 1.1515165-4.383946s3.05033098-1.2722858 4.50698932-.4816853c1.1659678.6381108 2.6133077.4290189 3.551-.513l2.582-2.582c.7929024.7254592 1.6316328 1.3991825 2.511 2.017.2816804.1872746.4535814.5008071.46.839v2.249c0 .133.026.259.036.39zm22.607 1.434c-.8459744.0872005-1.6888532-.1915755-2.316-.766-.6254949-.5687699-.9826631-1.3745762-.984-2.22 0-.5522847-.4477153-1-1-1s-1 .4477153-1 1c0 1.6568542-1.3431458 3-3 3s-3-1.3431458-3-3c0-.5522847-.4477153-1-1-1s-1 .4477153-1 1c.0002933.8480282-.3583377 1.6565658-.9871539 2.2255492-.6288163.5689834-1.4690686.8452537-2.3128461.7604508-1.5719622-.2131892-2.7337114-1.5720055-2.7-3.158v-2.249c-.0075954-.9858648-.4920334-1.9070423-1.3-2.472-5.073-3.584-6.7-7.007-6.7-14.107 0-8.361 4.132-14.334 11.176-16.775l1.978 1.58-2.6 1.3c-.3191451.159242-.5293172.4764114-.5515783.8323833-.0222612.355972.1467589.6968547.4435783.8946167l1.754 1.168-1.752 1.168c-.2491639.1662556-.4106789.435449-.4401198.7335376-.0294408.2980885.0762933.5936769.2881198.8054624l2 2c.3923789.3789722 1.0160848.3735524 1.4018186-.0121814s.3911536-1.0094397.0121814-1.4018186l-1.138-1.138 1.986-1.323c.2781551-.1854732.4452244-.4976789.4452244-.832s-.1670693-.6465268-.4452244-.832l-1.567-1.044 2.456-1.224c.3052552-.1525228.5116633-.4501738.5475018-.7895255.0358384-.3393517-.1038407-.6735524-.3705018-.8864745l-2.06-1.646c1.7860967-.3866308 3.6085376-.5804076 5.436-.578 11.72 0 19 6.9 19 18 0 7.095-1.627 10.523-6.7 14.108-.8079383.5645262-1.2924154 1.4854055-1.3 2.471v2.249c.034169 1.5861579-1.1278052 2.9452374-2.7 3.158zm19.01.614c-.7362941 1.0629884-1.941032 1.7044722-3.234 1.722-.3864877-1.3281818-1.2121539-2.4859477-2.342-3.284-.4495598-.3208774-1.0741226-.2165598-1.395.233s-.2165598 1.0741226.233 1.395c.9221726.6451811 1.5395107 1.6402231 1.708 2.753.2536122 1.7181006-.6326822 3.4030421-2.192122 4.167461-1.5594399.7644189-3.4341779.4329027-4.6368955-.8199578-1.2027176-1.2528604-1.4574251-3.1395691-.6299825-4.6665032.6381775-1.1674721.4278362-2.6162181-.516-3.554l-1.341-1.332c.01-.131.036-.257.036-.39v-2.245c.0063646-.3379601.1778304-.6513802.459-.839.880046-.6166122 1.719143-1.2896937 2.512-2.015l2.582 2.582c.937534.9423339 2.3850948 1.1514577 3.551.513 1.6251578-.8826239 3.6434942-.5360917 4.8811816.83806 1.2376874 1.3741516 1.3719977 3.4176112.3248184 4.94194z"></path>
              <path d="m22 28c-2.757 0-5 2.691-5 6s2.243 6 5 6 5-2.691 5-6-2.243-6-5-6zm0 10c-1.654 0-3-1.794-3-4s1.346-4 3-4 3 1.794 3 4-1.346 4-3 4z"></path>
              <path d="m45 34c0-3.309-2.243-6-5-6s-5 2.691-5 6 2.243 6 5 6 5-2.691 5-6zm-5 4c-1.654 0-3-1.794-3-4s1.346-4 3-4 3 1.794 3 4-1.346 4-3 4z"></path>
              <path d="m31.707 39.293c-.3904999-.3903819-1.0235001-.3903819-1.414 0l-1 1c-.3789722.3923789-.3735524 1.0160848.0121814 1.4018186s1.0094397.3911536 1.4018186.0121814l.293-.293.293.293c.3923789.3789722 1.0160848.3735524 1.4018186-.0121814s.3911536-1.0094397.0121814-1.4018186z"></path>
            </g>
          </g>
        </g>
      </svg>
